<svg width="101" height="28" viewBox="0 0 101 28" fill="none" xmlns="http://www.w3.org/2000/svg">
<path d="M16.2824 13.7134C16.2936 12.8455 16.5248 11.9944 16.9545 11.2395C17.3842 10.4846 17.9983 9.85033 18.7399 9.39571C18.2688 8.72481 17.6473 8.17269 16.9248 7.78319C16.2024 7.3937 15.3987 7.17756 14.5778 7.15195C12.8267 6.96865 11.129 8.19687 10.2367 8.19687C9.32706 8.19687 7.95316 7.17015 6.47368 7.2005C5.51671 7.23133 4.58408 7.50883 3.76664 8.00596C2.9492 8.50309 2.27483 9.2029 1.80925 10.0372C-0.207505 13.5192 1.29682 18.6366 3.22873 21.4512C4.19532 22.8294 5.32497 24.3689 6.80312 24.3144C8.24957 24.2545 8.78979 23.3946 10.5358 23.3946C12.2655 23.3946 12.7724 24.3144 14.2805 24.2796C15.8326 24.2545 16.8105 22.8953 17.7432 21.504C18.4377 20.522 18.9721 19.4366 19.3266 18.2881C18.4249 17.9078 17.6554 17.2712 17.114 16.4577C16.5727 15.6442 16.2835 14.6898 16.2824 13.7134Z" fill="white"/>
<path d="M13.4363 5.30128C14.2826 4.2882 14.6995 2.98606 14.5986 1.67139C13.3057 1.8068 12.1114 2.423 11.2537 3.39721C10.8343 3.87313 10.5131 4.42681 10.3085 5.02659C10.1038 5.62637 10.0197 6.2605 10.061 6.89271C10.7077 6.89935 11.3474 6.75957 11.9321 6.48391C12.5168 6.20825 13.0311 5.80388 13.4363 5.30128Z" fill="white"/>
<path d="M33.6276 20.9639H28.8809L27.741 24.3203H25.7305L30.2265 11.9023H32.3153L36.8113 24.3203H34.7665L33.6276 20.9639ZM29.3725 19.4151H33.135L31.2802 13.9678H31.2283L29.3725 19.4151Z" fill="white"/>
<path d="M46.5132 19.7937C46.5132 22.6072 45.0031 24.4148 42.7243 24.4148C42.147 24.4449 41.5729 24.3123 41.0677 24.0321C40.5625 23.752 40.1466 23.3356 39.8677 22.8308H39.8246V27.3151H37.9609V15.2663H39.7648V16.7722H39.7991C40.0909 16.2697 40.5138 15.8555 41.0228 15.5737C41.5319 15.2918 42.108 15.1529 42.69 15.1716C44.9943 15.1716 46.5132 16.988 46.5132 19.7937ZM44.5977 19.7937C44.5977 17.9607 43.6478 16.7556 42.1984 16.7556C40.7745 16.7556 39.8167 17.9861 39.8167 19.7937C39.8167 21.6179 40.7745 22.8396 42.1984 22.8396C43.6478 22.8396 44.5977 21.6433 44.5977 19.7937H44.5977Z" fill="white"/>
<path d="M56.5137 19.7937C56.5137 22.6072 55.0031 24.4148 52.7243 24.4148C52.147 24.4449 51.5729 24.3123 51.0677 24.0321C50.5625 23.752 50.1466 23.3356 49.8677 22.8308H49.8246V27.3151H47.9609V15.2663H49.7648V16.7722H49.7991C50.0909 16.2697 50.5138 15.8555 51.0228 15.5737C51.5319 15.2918 52.108 15.1529 52.69 15.1716C54.9943 15.1716 56.5137 16.988 56.5137 19.7937ZM54.5977 19.7937C54.5977 17.9607 53.6478 16.7556 52.1984 16.7556C50.7745 16.7556 49.8167 17.9861 49.8167 19.7937C49.8167 21.6179 50.7745 22.8396 52.1984 22.8396C53.6478 22.8396 54.5977 21.6433 54.5977 19.7937Z" fill="white"/>
<path d="M63.1148 20.8604C63.2528 22.0919 64.4525 22.9004 66.0918 22.9004C67.6626 22.9004 68.7928 22.0918 68.7928 20.9815C68.7928 20.0176 68.1112 19.4405 66.4973 19.0449L64.8834 18.6572C62.5967 18.1065 61.5352 17.04 61.5352 15.3096C61.5352 13.167 63.4076 11.6953 66.0654 11.6953C68.6978 11.6953 70.5017 13.167 70.5624 15.3096H68.6811C68.5685 14.0703 67.5412 13.3223 66.0399 13.3223C64.5387 13.3223 63.5114 14.0791 63.5114 15.1807C63.5114 16.0586 64.1675 16.5752 65.7726 16.9707L67.1446 17.3066C69.6996 17.9092 70.7602 18.9326 70.7602 20.749C70.7602 23.0722 68.9054 24.5273 65.9537 24.5273C63.1921 24.5273 61.3275 23.1064 61.207 20.8603L63.1148 20.8604Z" fill="white"/>
<path d="M74.7902 13.124V15.2666H76.5167V16.7383H74.7902V21.7295C74.7902 22.5049 75.1359 22.8662 75.8948 22.8662C76.0998 22.8626 76.3044 22.8483 76.5079 22.8232V24.2861C76.1667 24.3497 75.8198 24.3785 75.4728 24.372C73.6346 24.372 72.9178 23.6836 72.9178 21.9277V16.7383H71.5977V15.2666H72.9177V13.124H74.7902Z" fill="white"/>
<path d="M77.5156 19.7939C77.5156 16.9453 79.1981 15.1553 81.8216 15.1553C84.454 15.1553 86.1286 16.9453 86.1286 19.7939C86.1286 22.6504 84.4628 24.4326 81.8216 24.4326C79.1814 24.4326 77.5156 22.6504 77.5156 19.7939ZM84.2297 19.7939C84.2297 17.8398 83.3317 16.6865 81.8216 16.6865C80.3115 16.6865 79.4135 17.8486 79.4135 19.7939C79.4135 21.7559 80.3115 22.9004 81.8216 22.9004C83.3317 22.9004 84.2297 21.7559 84.2297 19.7939H84.2297Z" fill="white"/>
<path d="M87.6641 15.2662H89.4415V16.8072H89.4846C89.6049 16.3259 89.8876 15.9006 90.2853 15.6027C90.683 15.3048 91.1714 15.1526 91.6685 15.1715C91.8832 15.1707 92.0974 15.194 92.307 15.2408V16.9791C92.0358 16.8965 91.753 16.8586 91.4696 16.8668C91.1989 16.8559 90.929 16.9035 90.6784 17.0064C90.4279 17.1092 90.2027 17.265 90.0182 17.4629C89.8337 17.6608 89.6943 17.8961 89.6096 18.1528C89.525 18.4095 89.497 18.6814 89.5277 18.9498V24.3199H87.6641L87.6641 15.2662Z" fill="white"/>
<path d="M100.897 21.6611C100.646 23.3047 99.0412 24.4326 96.9876 24.4326C94.3464 24.4326 92.707 22.668 92.707 19.8369C92.707 16.9971 94.3552 15.1553 96.9092 15.1553C99.4211 15.1553 101.001 16.876 101.001 19.6211V20.2578H94.5883V20.3701C94.5587 20.7033 94.6005 21.039 94.711 21.3548C94.8215 21.6707 94.9981 21.9594 95.2291 22.202C95.4601 22.4445 95.7402 22.6353 96.0508 22.7616C96.3614 22.8879 96.6955 22.9469 97.0307 22.9346C97.4711 22.9757 97.913 22.874 98.2908 22.6446C98.6685 22.4151 98.962 22.0702 99.1274 21.6611L100.897 21.6611ZM94.5971 18.959H99.1362C99.1529 18.6594 99.1073 18.3596 99.0024 18.0784C98.8974 17.7972 98.7353 17.5406 98.5262 17.3249C98.3171 17.1091 98.0655 16.9388 97.7872 16.8245C97.509 16.7103 97.2101 16.6547 96.9092 16.6611C96.6057 16.6593 96.3049 16.7175 96.0241 16.8322C95.7433 16.947 95.488 17.116 95.273 17.3297C95.0581 17.5433 94.8877 17.7973 94.7717 18.0769C94.6556 18.3566 94.5963 18.6564 94.5971 18.959V18.959Z" fill="white"/>
<path d="M31.5494 4.06492C31.5658 4.43164 31.5079 4.7979 31.379 5.14162C31.2501 5.48534 31.0529 5.79941 30.7994 6.06492C30.5153 6.35821 30.1725 6.58821 29.7934 6.73986C29.4143 6.89151 29.0074 6.96138 28.5994 6.94492C28.1891 6.95406 27.7812 6.87891 27.4011 6.7241C27.021 6.5693 26.6766 6.33813 26.3894 6.04492C25.8067 5.44888 25.4805 4.64845 25.4805 3.81492C25.4805 2.98138 25.8067 2.18095 26.3894 1.58492C26.8349 1.1496 27.3991 0.855652 28.0112 0.740004C28.6232 0.624357 29.2558 0.692168 29.8294 0.934916C30.19 1.08315 30.5117 1.3124 30.7694 1.60492L30.2394 2.13492C30.0408 1.89569 29.7892 1.70605 29.5045 1.58107C29.2198 1.45609 28.9099 1.3992 28.5994 1.41492C28.2074 1.41763 27.8221 1.51631 27.4771 1.70233C27.132 1.88835 26.8378 2.15606 26.6201 2.48204C26.4024 2.80803 26.2679 3.18237 26.2283 3.57235C26.1887 3.96233 26.2452 4.35608 26.3929 4.71917C26.5406 5.08227 26.775 5.40366 27.0756 5.65526C27.3762 5.90685 27.7338 6.08099 28.1172 6.16246C28.5007 6.24392 28.8982 6.23023 29.2751 6.12258C29.652 6.01493 29.9969 5.8166 30.2794 5.54492C30.5849 5.21002 30.762 4.77785 30.7794 4.32492H28.5994V3.60492H31.5094C31.5322 3.75728 31.5455 3.91091 31.5494 4.06492Z" fill="white" stroke="white" stroke-width="0.189945" stroke-miterlimit="10"/>
<path d="M36.1284 1.56471H33.4284V3.46471H35.8884V4.18471H33.4284V6.08471H36.1284V6.82471H32.6484V0.824707H36.1284V1.56471Z" fill="white" stroke="white" stroke-width="0.189945" stroke-miterlimit="10"/>
<path d="M39.3992 6.82471H38.6292V1.56471H36.9492V0.824707H41.1192V1.56471H39.3992V6.82471Z" fill="white" stroke="white" stroke-width="0.189945" stroke-miterlimit="10"/>
<path d="M44.0586 6.82471V0.824707H44.8286V6.82471H44.0586Z" fill="white" stroke="white" stroke-width="0.189945" stroke-miterlimit="10"/>
<path d="M48.2586 6.82471H47.4886V1.56471H45.8086V0.824707H49.9286V1.56471H48.2586V6.82471Z" fill="white" stroke="white" stroke-width="0.189945" stroke-miterlimit="10"/>
<path d="M57.7332 6.04485C57.4444 6.33391 57.1014 6.56322 56.7239 6.71967C56.3465 6.87612 55.9418 6.95664 55.5332 6.95664C55.1246 6.95664 54.72 6.87612 54.3425 6.71967C53.965 6.56322 53.622 6.33391 53.3332 6.04485C52.7679 5.4439 52.4531 4.64991 52.4531 3.82485C52.4531 2.99979 52.7679 2.2058 53.3332 1.60485C53.6158 1.30765 53.9576 1.07308 54.3366 0.916328C54.7156 0.759573 55.1232 0.68412 55.5332 0.694851C55.9426 0.688375 56.349 0.76577 56.7273 0.922272C57.1057 1.07877 57.448 1.31107 57.7332 1.60485C58.0208 1.89734 58.2468 2.24448 58.3979 2.62578C58.5491 3.00707 58.6223 3.41479 58.6132 3.82485C58.6263 4.23542 58.555 4.64431 58.4036 5.02618C58.2523 5.40806 58.0241 5.75477 57.7332 6.04485ZM53.9032 5.54485C54.1162 5.76073 54.37 5.93214 54.6498 6.04913C54.9297 6.16613 55.2299 6.22637 55.5332 6.22637C55.8365 6.22637 56.1368 6.16613 56.4166 6.04913C56.6964 5.93214 56.9502 5.76073 57.1632 5.54485C57.5947 5.07598 57.8342 4.46205 57.8342 3.82485C57.8342 3.18765 57.5947 2.57372 57.1632 2.10485C56.9502 1.88897 56.6964 1.71756 56.4166 1.60057C56.1368 1.48357 55.8365 1.42333 55.5332 1.42333C55.2299 1.42333 54.9297 1.48357 54.6498 1.60057C54.37 1.71756 54.1162 1.88897 53.9032 2.10485C53.4717 2.57372 53.2322 3.18765 53.2322 3.82485C53.2322 4.46205 53.4717 5.07598 53.9032 5.54485Z" fill="white" stroke="white" stroke-width="0.189945" stroke-miterlimit="10"/>
<path d="M59.7031 6.82471V0.824707H60.6331L63.5531 5.49471V4.33471V0.824707H64.3231V6.82471H63.5231L60.4731 1.93471V3.08471V6.82471H59.7031Z" fill="white" stroke="white" stroke-width="0.189945" stroke-miterlimit="10"/>
</svg>
