<svg width="117" height="28" viewBox="0 0 117 28" fill="none" xmlns="http://www.w3.org/2000/svg">
<path d="M37.8698 3.80955C37.8863 4.17627 37.8279 4.54253 37.698 4.88625C37.5682 5.22997 37.3696 5.54404 37.1142 5.80955C36.828 6.10284 36.4827 6.33284 36.1007 6.48449C35.7188 6.63613 35.3089 6.70601 34.8979 6.68955C34.4845 6.69869 34.0737 6.62354 33.6907 6.46873C33.3078 6.31393 32.9609 6.08276 32.6715 5.78954C32.0845 5.19351 31.7559 4.39308 31.7559 3.55955C31.7559 2.72601 32.0845 1.92558 32.6715 1.32955C33.1203 0.894229 33.6887 0.600281 34.3053 0.484633C34.9219 0.368986 35.5591 0.436796 36.137 0.679545C36.5003 0.827776 36.8243 1.05703 37.084 1.34955L36.5501 1.87954C36.35 1.64032 36.0965 1.45068 35.8097 1.3257C35.5229 1.20071 35.2107 1.14382 34.8979 1.15954C34.503 1.16226 34.1148 1.26094 33.7672 1.44696C33.4196 1.63298 33.1233 1.90069 32.904 2.22667C32.6847 2.55266 32.5491 2.927 32.5092 3.31698C32.4693 3.70696 32.5263 4.10071 32.6751 4.4638C32.8238 4.8269 33.06 5.14829 33.3628 5.39989C33.6656 5.65148 34.0259 5.82562 34.4122 5.90709C34.7984 5.98855 35.1989 5.97486 35.5786 5.86721C35.9583 5.75956 36.3057 5.56122 36.5904 5.28954C36.8981 4.95465 37.0765 4.52248 37.0941 4.06955H34.8979V3.34955H37.8295C37.8524 3.50191 37.8659 3.65554 37.8698 3.80955Z" fill="white" stroke="white" stroke-width="0.189945" stroke-miterlimit="10"/>
<path d="M42.4843 1.30934H39.7643V3.20934H42.2425V3.92934H39.7643V5.82934H42.4843V6.56934H38.9785V0.569336H42.4843V1.30934Z" fill="white" stroke="white" stroke-width="0.189945" stroke-miterlimit="10"/>
<path d="M45.7865 6.56934H45.0108V1.30934H43.3184V0.569336H47.5192V1.30934H45.7865V6.56934Z" fill="white" stroke="white" stroke-width="0.189945" stroke-miterlimit="10"/>
<path d="M50.4824 6.56934V0.569336H51.2581V6.56934H50.4824Z" fill="white" stroke="white" stroke-width="0.189945" stroke-miterlimit="10"/>
<path d="M54.7006 6.56934H53.9249V1.30934H52.2324V0.569336H56.3829V1.30934H54.7006V6.56934Z" fill="white" stroke="white" stroke-width="0.189945" stroke-miterlimit="10"/>
<path d="M64.2547 5.78948C63.9638 6.07854 63.6183 6.30785 63.238 6.4643C62.8577 6.62075 62.4501 6.70127 62.0385 6.70127C61.6268 6.70127 61.2192 6.62075 60.8389 6.4643C60.4586 6.30785 60.1131 6.07854 59.8221 5.78948C59.2526 5.18853 58.9355 4.39454 58.9355 3.56948C58.9355 2.74441 59.2526 1.95043 59.8221 1.34948C60.1068 1.05228 60.4512 0.817713 60.833 0.660957C61.2148 0.504202 61.6254 0.428749 62.0385 0.43948C62.4509 0.433004 62.8603 0.510399 63.2414 0.666901C63.6226 0.823402 63.9674 1.0557 64.2547 1.34948C64.5444 1.64197 64.7721 1.98911 64.9244 2.37041C65.0766 2.7517 65.1504 3.15942 65.1413 3.56948C65.1545 3.98005 65.0826 4.38894 64.9301 4.77081C64.7776 5.15268 64.5478 5.4994 64.2547 5.78948ZM60.3964 5.28948C60.611 5.50535 60.8666 5.67677 61.1485 5.79376C61.4304 5.91075 61.7329 5.971 62.0385 5.971C62.344 5.971 62.6465 5.91075 62.9284 5.79376C63.2103 5.67677 63.4659 5.50535 63.6805 5.28948C64.1152 4.8206 64.3565 4.20668 64.3565 3.56948C64.3565 2.93228 64.1152 2.31835 63.6805 1.84948C63.4659 1.6336 63.2103 1.46219 62.9284 1.3452C62.6465 1.2282 62.344 1.16796 62.0385 1.16796C61.7329 1.16796 61.4304 1.2282 61.1485 1.3452C60.8666 1.46219 60.611 1.6336 60.3964 1.84948C59.9617 2.31835 59.7204 2.93228 59.7204 3.56948C59.7204 4.20668 59.9617 4.8206 60.3964 5.28948Z" fill="white" stroke="white" stroke-width="0.189945" stroke-miterlimit="10"/>
<path d="M66.2324 6.56934V0.569336H67.1693L70.1109 5.23934V4.07934V0.569336H70.8866V6.56934H70.0807L67.0081 1.67934V2.82934V6.56934H66.2324Z" fill="white" stroke="white" stroke-width="0.189945" stroke-miterlimit="10"/>
<path d="M58.7444 15.3197C57.8956 15.3217 57.0665 15.5735 56.3619 16.0432C55.6572 16.513 55.1088 17.1796 54.7858 17.9588C54.4628 18.7379 54.3799 19.5947 54.5474 20.4206C54.7149 21.2466 55.1255 22.0047 55.7271 22.5991C56.3286 23.1934 57.0943 23.5974 57.9272 23.7598C58.76 23.9223 59.6227 23.8359 60.4061 23.5116C61.1895 23.1874 61.8585 22.6398 62.3284 21.9382C62.7983 21.2365 63.048 20.4123 63.0461 19.5697C63.0543 19.0077 62.9485 18.4497 62.7349 17.9291C62.5214 17.4085 62.2045 16.9358 61.8032 16.5393C61.4018 16.1427 60.9242 15.8304 60.3987 15.6209C59.8732 15.4114 59.3106 15.309 58.7444 15.3197ZM58.7444 22.1497C58.2242 22.1859 57.705 22.0658 57.2544 21.8051C56.8038 21.5445 56.4427 21.1553 56.2179 20.6882C55.9931 20.2211 55.915 19.6976 55.9939 19.1859C56.0727 18.6742 56.3049 18.1978 56.6601 17.8188C57.0153 17.4397 57.4771 17.1755 57.9856 17.0605C58.4941 16.9455 59.0257 16.985 59.5112 17.1738C59.9968 17.3627 60.4139 17.6922 60.7084 18.1195C61.0028 18.5467 61.1609 19.0521 61.1622 19.5697C61.1784 19.8978 61.1283 20.2257 61.0148 20.5342C60.9014 20.8427 60.7268 21.1255 60.5015 21.3659C60.2761 21.6064 60.0046 21.7996 59.7028 21.9342C59.401 22.0689 59.0752 22.1421 58.7444 22.1497ZM49.3554 15.3197C48.5066 15.3217 47.6775 15.5735 46.9728 16.0432C46.2682 16.513 45.7197 17.1796 45.3967 17.9588C45.0738 18.7379 44.9908 19.5947 45.1584 20.4206C45.3259 21.2466 45.7364 22.0047 46.338 22.5991C46.9396 23.1934 47.7052 23.5974 48.5381 23.7598C49.371 23.9223 50.2337 23.8359 51.0171 23.5116C51.8005 23.1874 52.4695 22.6398 52.9394 21.9382C53.4093 21.2365 53.659 20.4123 53.657 19.5697C53.6652 19.0077 53.5594 18.4497 53.3459 17.9291C53.1324 17.4085 52.8155 16.9358 52.4141 16.5393C52.0128 16.1427 51.5351 15.8304 51.0096 15.6209C50.4842 15.4114 49.9216 15.309 49.3554 15.3197ZM49.3554 22.1497C48.8351 22.1859 48.316 22.0658 47.8654 21.8051C47.4148 21.5445 47.0536 21.1553 46.8288 20.6882C46.604 20.2211 46.526 19.6976 46.6048 19.1859C46.6837 18.6742 46.9158 18.1978 47.271 17.8188C47.6262 17.4397 48.0881 17.1755 48.5966 17.0605C49.1051 16.9455 49.6366 16.985 50.1222 17.1738C50.6078 17.3627 51.0249 17.6922 51.3193 18.1195C51.6138 18.5467 51.7719 19.0521 51.7732 19.5697C51.7894 19.8978 51.7393 20.2257 51.6258 20.5342C51.5123 20.8427 51.3378 21.1255 51.1124 21.3659C50.8871 21.6064 50.6156 21.7996 50.3138 21.9342C50.012 22.0689 49.6861 22.1421 49.3554 22.1497ZM38.1933 16.6297V18.4297H42.5453C42.4771 19.2776 42.122 20.0775 41.5379 20.6997C41.1013 21.1413 40.5763 21.4869 39.9967 21.7143C39.4171 21.9416 38.7958 22.0457 38.1732 22.0197C36.8907 22.0197 35.6607 21.514 34.7539 20.6139C33.8471 19.7137 33.3376 18.4928 33.3376 17.2197C33.3376 15.9467 33.8471 14.7258 34.7539 13.8256C35.6607 12.9255 36.8907 12.4197 38.1732 12.4197C39.4027 12.4016 40.5898 12.8651 41.4775 13.7097L42.7569 12.4397C42.1564 11.8503 41.4435 11.3856 40.6599 11.0731C39.8763 10.7606 39.0377 10.6065 38.1933 10.6197C37.2977 10.5851 36.4043 10.7304 35.5666 11.0467C34.7289 11.3631 33.9642 11.844 33.3182 12.4608C32.6723 13.0775 32.1584 13.8173 31.8073 14.6359C31.4563 15.4545 31.2754 16.3351 31.2754 17.2247C31.2754 18.1144 31.4563 18.9949 31.8073 19.8135C32.1584 20.6322 32.6723 21.372 33.3182 21.9887C33.9642 22.6055 34.7289 23.0864 35.5666 23.4028C36.4043 23.7191 37.2977 23.8643 38.1933 23.8297C39.0551 23.8639 39.9144 23.7167 40.7148 23.3979C41.5152 23.0791 42.2386 22.5958 42.8375 21.9797C43.8954 20.8262 44.459 19.3089 44.409 17.7497C44.4126 17.3745 44.3823 16.9996 44.3183 16.6297H38.1933ZM83.839 18.0297C83.5762 17.2625 83.0849 16.5925 82.4301 16.1086C81.7753 15.6247 80.9878 15.3496 80.172 15.3197C79.6209 15.3187 79.0755 15.4298 78.5694 15.6463C78.0634 15.8628 77.6074 16.18 77.2297 16.5783C76.8521 16.9766 76.5607 17.4476 76.3737 17.9621C76.1866 18.4767 76.1079 19.0238 76.1424 19.5697C76.1337 20.4826 76.4229 21.3737 76.9665 22.11C77.5102 22.8463 78.2792 23.3882 79.1588 23.6549C80.0383 23.9215 80.9812 23.8986 81.8465 23.5895C82.7118 23.2803 83.4532 22.7016 83.9598 21.9397L82.4991 20.9397C82.2813 21.3 81.9725 21.5975 81.6031 21.8028C81.2338 22.008 80.8169 22.1138 80.3936 22.1097C79.957 22.1276 79.5251 22.014 79.1547 21.7838C78.7843 21.5535 78.4928 21.2175 78.3184 20.8197L84.0505 18.4697L83.839 18.0297ZM77.996 19.4497C77.9756 19.1391 78.0178 18.8276 78.1202 18.5334C78.2226 18.2391 78.3831 17.9682 78.5923 17.7363C78.8015 17.5044 79.0552 17.3163 79.3386 17.1829C79.6219 17.0496 79.9292 16.9737 80.2425 16.9597C80.5671 16.9401 80.8903 17.0159 81.1717 17.1778C81.453 17.3397 81.68 17.5804 81.8241 17.8697L77.996 19.4497ZM73.3418 23.5697H75.2256V11.0697H73.3418V23.5697ZM70.2591 16.2697H70.1886C69.9072 15.9516 69.5598 15.6976 69.1704 15.525C68.7809 15.3524 68.3585 15.2653 67.932 15.2697C66.8311 15.3227 65.7929 15.7942 65.0326 16.5863C64.2724 17.3785 63.8483 18.4306 63.8483 19.5247C63.8483 20.6188 64.2724 21.671 65.0326 22.4632C65.7929 23.2553 66.8311 23.7268 67.932 23.7797C68.3591 23.7882 68.7828 23.703 69.1729 23.5302C69.563 23.3573 69.9098 23.1011 70.1886 22.7797H70.2591V23.3897C70.2591 25.0197 69.3827 25.8897 67.9723 25.8897C67.5011 25.8795 67.0437 25.7304 66.6581 25.4616C66.2724 25.1927 65.976 24.8162 65.8064 24.3797L64.1744 25.0497C64.4761 25.802 65.0007 26.4456 65.6788 26.8956C66.3569 27.3455 67.1567 27.5806 67.9723 27.5697C70.1785 27.5697 72.0019 26.2797 72.0019 23.1397V15.5697H70.2591V16.2697ZM68.0932 22.1497C67.4331 22.1089 66.8136 21.8198 66.3607 21.3414C65.9079 20.863 65.6558 20.2312 65.6558 19.5747C65.6558 18.9183 65.9079 18.2865 66.3607 17.8081C66.8136 17.3297 67.4331 17.0406 68.0932 16.9997C68.4158 17.0136 68.7323 17.0917 69.0239 17.2294C69.3155 17.3671 69.5761 17.5616 69.7904 17.8014C70.0047 18.0412 70.1683 18.3213 70.2713 18.6251C70.3743 18.9289 70.4147 19.2501 70.3901 19.5697C70.4175 19.8904 70.3792 20.2133 70.2774 20.5189C70.1756 20.8245 70.0124 21.1064 69.7977 21.3475C69.583 21.5887 69.3212 21.7841 69.0282 21.922C68.7353 22.0599 68.4172 22.1374 68.0932 22.1497ZM92.6638 11.0697H88.1507V23.5697H90.0345V18.8297H92.6638C93.2007 18.868 93.7398 18.7961 94.2475 18.6185C94.7552 18.4408 95.2205 18.1613 95.6145 17.7972C96.0086 17.4332 96.3228 16.9925 96.5377 16.5026C96.7526 16.0127 96.8635 15.4841 96.8635 14.9497C96.8635 14.4154 96.7526 13.8868 96.5377 13.3969C96.3228 12.907 96.0086 12.4663 95.6145 12.1023C95.2205 11.7382 94.7552 11.4587 94.2475 11.281C93.7398 11.1034 93.2007 11.0315 92.6638 11.0697ZM92.6638 17.0697H90.0345V12.8097H92.7041C92.9872 12.8097 93.2676 12.8651 93.5291 12.9726C93.7907 13.0802 94.0284 13.2378 94.2285 13.4365C94.4287 13.6353 94.5875 13.8712 94.6959 14.1308C94.8042 14.3904 94.86 14.6687 94.86 14.9497C94.86 15.2308 94.8042 15.5091 94.6959 15.7687C94.5875 16.0283 94.4287 16.2642 94.2285 16.463C94.0284 16.6617 93.7907 16.8193 93.5291 16.9268C93.2676 17.0344 92.9872 17.0897 92.7041 17.0897L92.6638 17.0697ZM104.289 15.2797C103.603 15.2378 102.92 15.3963 102.324 15.7358C101.727 16.0752 101.245 16.5807 100.935 17.1897L102.597 17.8797C102.765 17.5792 103.017 17.3333 103.323 17.1718C103.628 17.0103 103.975 16.9401 104.32 16.9697C104.559 16.942 104.801 16.9618 105.032 17.0281C105.264 17.0943 105.479 17.2056 105.667 17.3555C105.855 17.5053 106.01 17.6908 106.125 17.901C106.239 18.1112 106.311 18.3419 106.334 18.5797V18.6997C105.729 18.3837 105.054 18.2189 104.37 18.2197C102.577 18.2197 100.743 19.2197 100.743 21.0397C100.761 21.4266 100.857 21.806 101.025 22.1553C101.193 22.5046 101.431 22.8168 101.723 23.0734C102.015 23.3299 102.357 23.5255 102.726 23.6485C103.096 23.7716 103.487 23.8196 103.876 23.7897C104.349 23.8157 104.82 23.7164 105.242 23.502C105.663 23.2876 106.019 22.9659 106.274 22.5697H106.334V23.5697H108.148V18.7597C108.148 16.5697 106.475 15.2997 104.33 15.2997L104.289 15.2797ZM104.058 22.1297C103.443 22.1297 102.587 21.8197 102.587 21.0697C102.587 20.0697 103.655 19.7297 104.602 19.7297C105.2 19.7151 105.791 19.8601 106.314 20.1497C106.251 20.6928 105.992 21.1947 105.584 21.5625C105.177 21.9302 104.649 22.1389 104.098 22.1497L104.058 22.1297ZM114.756 15.5697L112.6 20.9897H112.54L110.304 15.5697H108.289L111.643 23.1497L109.729 27.3597H111.694L116.852 15.5697H114.756ZM97.8318 23.5697H99.7056V11.0697H97.8318V23.5697Z" fill="white"/>
<path d="M0.616487 1.10955C0.284515 1.49917 0.115128 2.00001 0.143004 2.50955V24.6296C0.108726 25.1399 0.278898 25.6431 0.616487 26.0296L0.687005 26.1096L13.1688 13.7196V13.4196L0.687005 1.03955L0.616487 1.10955Z" fill="url(#paint0_linear_23035_551584)"/>
<path d="M17.2964 17.8495L13.166 13.7196V13.4196L17.2964 9.28955L17.3871 9.34955L22.3334 12.1296C23.7438 12.9196 23.7438 14.2196 22.3334 15.0196L17.4072 17.7996L17.2964 17.8495Z" fill="url(#paint1_linear_23035_551584)"/>
<path d="M17.4149 17.7893L13.1636 13.5693L0.611328 26.0293C0.895996 26.2809 1.26037 26.4256 1.64125 26.4384C2.02214 26.4511 2.39553 26.3312 2.69666 26.0993L17.4149 17.7893Z" fill="url(#paint2_linear_23035_551584)"/>
<path d="M17.4149 9.34979L2.69666 1.04979C2.39749 0.814707 2.02439 0.691851 1.64299 0.702825C1.26158 0.713799 0.896283 0.857902 0.611328 1.10979L13.1636 13.5698L17.4149 9.34979Z" fill="url(#paint3_linear_23035_551584)"/>
<path opacity="0.2" d="M17.294 17.6992L2.69666 25.9492C2.40647 26.1666 2.05281 26.2842 1.68925 26.2842C1.32569 26.2842 0.972036 26.1666 0.681846 25.9492L0.611328 26.0192L0.681846 26.0992C0.972036 26.3166 1.32569 26.4342 1.68925 26.4342C2.05281 26.4342 2.40647 26.3166 2.69666 26.0992L17.4149 17.7892L17.294 17.6992Z" fill="white"/>
<path opacity="0.12" d="M0.615055 25.8895C0.29147 25.4929 0.132891 24.9884 0.171795 24.4795V24.6295C0.137517 25.1399 0.307687 25.643 0.645276 26.0295L0.715796 25.9595L0.615055 25.8895Z" fill="white"/>
<path opacity="0.12" d="M22.3359 14.8693L17.2988 17.6993L17.3895 17.7893L22.3359 15.0093C22.6278 14.8868 22.8811 14.6884 23.0691 14.4349C23.257 14.1815 23.3726 13.8825 23.4037 13.5693C23.3407 13.8539 23.2113 14.1198 23.0258 14.3456C22.8403 14.5714 22.604 14.7508 22.3359 14.8693Z" fill="white"/>
<path opacity="0.25" d="M2.70139 1.18932L22.3358 12.2693C22.6039 12.3878 22.8402 12.5672 23.0257 12.793C23.2112 13.0188 23.3406 13.2847 23.4036 13.5693C23.3725 13.2562 23.2569 12.9571 23.069 12.7037C22.881 12.4503 22.6277 12.2519 22.3358 12.1293L2.70139 1.04931C1.3011 0.249314 0.142578 0.909315 0.142578 2.50931V2.65931C0.1728 1.05931 1.3011 0.399315 2.70139 1.18932Z" fill="white"/>
<defs>
<linearGradient id="paint0_linear_23035_551584" x1="12.0606" y1="2.27955" x2="-4.71891" y2="19.1834" gradientUnits="userSpaceOnUse">
<stop stop-color="#00A0FF"/>
<stop offset="0.01" stop-color="#00A1FF"/>
<stop offset="0.26" stop-color="#00BEFF"/>
<stop offset="0.51" stop-color="#00D2FF"/>
<stop offset="0.76" stop-color="#00DFFF"/>
<stop offset="1" stop-color="#00E3FF"/>
</linearGradient>
<linearGradient id="paint1_linear_23035_551584" x1="24.177" y1="13.5695" x2="-0.192203" y2="13.5695" gradientUnits="userSpaceOnUse">
<stop stop-color="#FFE000"/>
<stop offset="0.41" stop-color="#FFBD00"/>
<stop offset="0.78" stop-color="#FFA500"/>
<stop offset="1" stop-color="#FF9C00"/>
</linearGradient>
<linearGradient id="paint2_linear_23035_551584" x1="15.1079" y1="15.8693" x2="-7.65154" y2="38.7873" gradientUnits="userSpaceOnUse">
<stop stop-color="#FF3A44"/>
<stop offset="1" stop-color="#C31162"/>
</linearGradient>
<linearGradient id="paint3_linear_23035_551584" x1="-2.55193" y1="-6.25021" x2="7.60779" y2="3.98477" gradientUnits="userSpaceOnUse">
<stop stop-color="#32A071"/>
<stop offset="0.07" stop-color="#2DA771"/>
<stop offset="0.48" stop-color="#15CF74"/>
<stop offset="0.8" stop-color="#06E775"/>
<stop offset="1" stop-color="#00F076"/>
</linearGradient>
</defs>
</svg>
